<svg xmlns="http://www.w3.org/2000/svg" width="2508.517" height="1607.106" viewBox="0 0 2508.517 1607.106">
  <g id="Rone_Logo_No_Engineering_No_Lines" data-name="Rone Logo_No Engineering_No Lines" transform="translate(2974 1441.124)">
    <g id="Group_1" data-name="Group 1" transform="translate(-1799 740)">
      <path id="Path_1" data-name="Path 1" d="M1694.6-1449.3l-8.1-5.6-8.2-5.6,5.1-3.1c15.1-9.1,66.3-38.3,80.6-46,9.1-4.9,24.6-12.7,34.3-17.4s17.7-8.8,17.7-9.2c0-1.1-36.9,16.5-55.4,26.4-18.4,9.8-70,39.2-91.1,51.8-7.2,4.3-20,12.7-28.5,18.6s-24,16.3-34.4,23.2c-50.3,33.3-81,57.1-139.1,108-41.9,36.8-61.7,55.3-100,93.6-36.4,36.5-56.4,57.5-82.7,86.8-33.5,37.3-45.9,52-45.4,53.5a11.78,11.78,0,0,1,.6,1.9c0,.2.9.4,1.9.4,1.2,0,7.1-5.1,14.3-12.3,22.3-22.1,53-51,73.3-69.2,11-9.8,25.6-23.1,32.5-29.5,30.5-28.3,35.3-32.2,80.5-66.3,18.7-14.1,40.5-30.6,48.5-36.7,14.5-11.1,39.1-27.8,59-40.2,49.3-30.7,61.3-37.8,88-52.5,16.5-9.1,63.2-33.5,79.3-41.4C1723.2-1423.1,1769.411-1493.138,1694.6-1449.3Z" transform="translate(-1201.217 -554.513)" stroke="#707070" stroke-width="1"/>
      <path id="Path_2" data-name="Path 2" d="M2430.7-1094.8c-1.1,33.3-4.6,65.8-11.3,104.8-19.9,116.4-61.2,216.7-143.7,349-28.7,46-61,91.9-88.1,125-42.5,52.1-58.5,70.5-87.5,100.9-24.3,25.5-80.3,77.9-110.6,103.5-13.2,11.2-56.2,45-72,56.6q-14.7,10.8-43.5,32.6c-17.4,13.1-66,43.5-99,61.9-20,11.1-68.9,35.3-90,44.5-41.9,18.3-100,39.2-136,49-11.7,3.1-61.2,14.8-74.1,17.5-6.3,1.3-17.6,3.1-25,4-17.9,2.2-70.2,3.1-90.9,1.6-60.9-4.6-130.1-22.7-181.5-47.5-44.8-21.7-77.4-42.6-113.5-72.9-12.5-10.5-29.3-27-30.2-29.6-.3-1-1.2-1.2-3.1-.7-5.3,1.3-3.7,4.8,9.6,21.1,23.1,28.2,55,59.1,82.2,79.5,64.4,48.3,139.4,76.9,229,87.4,27.4,3.2,77.3,6.6,97.7,6.6,12.3,0,69.3-4.3,87.8-6.6,59.9-7.5,118.5-23.3,184-49.5a1352.852,1352.852,0,0,0,336-194.7c35.5-28.2,73.5-62.5,114.5-103.6,60.8-60.9,81.9-84.8,136.6-155.6,65.3-84.4,109.5-156.9,149.8-245.9,37.7-83,67.1-177.9,82.6-266.1,1.8-10.4,2.1-13.8,1.2-14.9-1-1.2-.9-1.3.3-.7.8.4.4-.2-1-1.3-2.4-2-3.6-2.5-5.2-2.2-.5,0-.7-.5-.5-1.2.1-.6-.6-1.1-1.5-1.1-1,.1-1.5-.2-1.3-.7.7-1.1-3-3-4-2.1-.5.4-.5.1-.1-.6.6-1.1-.5-1.7-2.6-1.3-.5,0-.7-.5-.5-1.2.1-.6-.6-1.1-1.5-1.1-1,.1-1.6-.3-1.5-1,.1-.6-.6-1.1-1.5-1.1a3.985,3.985,0,0,1-2.5-.9c-.5-.5-.2-.6.7-.2.8.4.6.1-.4-.8-1-.8-2.3-1.3-2.8-1s-.7,0-.6-.8c.2-.7-.5-1.2-1.4-1.2-1,.1-1.6-.3-1.5-1,.1-.6-.6-1.1-1.5-1.1a3.985,3.985,0,0,1-2.5-.9c-.5-.5-.2-.6.7-.2.8.4.6.1-.4-.8-1-.8-2.3-1.3-2.8-1s-.7,0-.6-.8c.2-.7-.5-1.2-1.4-1.2-1,.1-1.6-.3-1.5-1,.1-.6-.6-1.1-1.5-1.1a3.985,3.985,0,0,1-2.5-.9c-.5-.5-.2-.6.7-.2.8.4.6.1-.4-.8-1-.8-2.3-1.3-2.8-1s-.7,0-.6-.8c.2-.7-.5-1.2-1.4-1.2-1,.1-1.6-.3-1.5-1,.1-.6-.6-1.1-1.5-1.1a3.984,3.984,0,0,1-2.5-.9c-.5-.5-.2-.6.7-.2.8.4.4-.2-1-1.3-2.4-2-3.6-2.5-5.2-2.2-.5,0-.7-.5-.5-1.1.1-.7-.6-1.2-1.5-1.2-1,.1-1.6-.3-1.5-1,.1-.6-.6-1.1-1.5-1.1a3.985,3.985,0,0,1-2.5-.9c-.5-.5-.2-.6.7-.2.8.4.6.1-.4-.8-1-.8-2.3-1.3-2.8-1s-.7,0-.6-.8c.2-.7-.5-1.2-1.4-1.2-1,.1-1.6-.3-1.5-1,.1-.6-.6-1.1-1.5-1.1a3.985,3.985,0,0,1-2.5-.9c-.5-.5-.2-.6.7-.2.8.4.6.1-.4-.8-1-.8-2.3-1.3-2.8-1s-.7,0-.6-.8c.2-.7-.5-1.2-1.4-1.2-1,.1-1.6-.3-1.5-1,.1-.6-.6-1.1-1.5-1.1a3.985,3.985,0,0,1-2.5-.9c-.5-.5-.2-.6.7-.2.8.4.4-.2-1-1.3-2.4-2-3.6-2.5-5.2-2.2-.5,0-.7-.5-.5-1.2.1-.6-.6-1.1-1.5-1.1-1,.1-1.6-.3-1.5-1,.1-.6-.6-1.1-1.5-1.1a3.985,3.985,0,0,1-2.5-.9c-.5-.5-.2-.6.7-.2.8.4.6.1-.4-.8-1-.8-2.3-1.3-2.8-1s-.7,0-.6-.8c.2-.7-.5-1.2-1.4-1.2-1,.1-1.6-.3-1.5-1,.1-.6-.6-1.1-1.5-1.1a3.985,3.985,0,0,1-2.5-.9c-.5-.5-.2-.6.6-.1.9.5,1.2.4.7-.3C2431.8-1116.8,2431.3-1113.6,2430.7-1094.8Z" transform="translate(-1209.408 -557.053) rotate(-0.974)" stroke="#707070" stroke-width="1"/>
      <g id="Group_2" data-name="Group 2">
        <g id="Group_1-2" data-name="Group 1">
          <path id="Path_2-2" data-name="Path 2" d="M2606.611,878.34l-35.351-26.3s-4.389-15.107-4.389-15.107c.274-.18,67.043-43.46,165.02-85.829,254-109.838,708.767-206.36,673.406,464.358-.123,2.33-88.236,36.886-122.354,52.12-.018.008,110.639-711.305-676.332-389.241" transform="translate(-2090 -2853.39)" stroke="#707070" stroke-width="1"/>
        </g>
      </g>
    </g>
    <path id="Path_3" data-name="Path 3" d="M674.332-849.405c-1.56.2-7.119.878-12.19,1.463a299.91,299.91,0,0,0-43.2,8.678c-48.078,13.846-90.206,43.877-116.146,82.88-16.188,24.376-27.5,57.82-30.914,92.045A310.328,310.328,0,0,0,471.3-630.7c.585,24.572,2.535,37.15,8.972,56.358,17.066,51.093,49.638,89.023,98.008,114.179,61.145,31.787,143.549,37.344,213.374,14.236,33.547-11.116,59.682-26.229,81.331-47.1,17.749-16.966,27.793-30.812,38.813-52.945,14.726-29.837,20.87-57.821,20.87-95.36-.1-28.862-4.1-52.653-12.678-75.859-4.974-13.358-15.9-34.127-23.6-45.047-7.412-10.433-23.7-27.692-33.937-36.175-25.55-20.866-60.365-37.247-95.96-45.145-22.332-4.875-30.036-5.655-60.462-5.948C690.228-849.7,675.99-849.6,674.332-849.405Zm55.684,74.495a141.889,141.889,0,0,1,55,21.743c9.265,6.143,26.33,23.3,32.572,32.762,27.4,41.244,31.4,97.213,10.24,142.358-11.41,24.474-34.034,47.485-59,59.869-9.947,4.973-25.16,10.043-37.74,12.578-14.336,2.925-42.616,3.12-57.732.39-18.334-3.218-38.325-11.018-53.148-20.573-28.281-18.234-49.443-50.215-57.245-86.585-2.633-12.091-2.34-39.782.488-52.75,11.6-52.653,44.274-91.07,89.523-105.209,23.894-7.509,50.517-9.073,77.042-4.584Z" transform="translate(-2989.366 182.187)"/>
    <path id="Path_4" data-name="Path 4" d="M1026-635.3v207.7h81.668l.195-136.389.292-136.388,130.28,136.388L1368.71-427.7h35.778l35.682.1V-843h-80.7l-.195,131.762-.292,131.661L1230.66-711.238,1102.32-842.9l-38.112-.1H1026Z" transform="translate(-3004.97 175.413)"/>
    <path id="Path_5" data-name="Path 5" d="M0-642.34v199.66H88.638V-604.54H194.42l55.91,80.833,56.008,80.93H356.4c39.839.1,49.871-.194,49.482-1.163-.2-.678-26.4-37.8-58.053-82.481s-57.469-81.414-57.274-81.608a103.306,103.306,0,0,1,10.812-2.326c28.345-5.428,50.553-17.059,71.2-37.315,10.13-9.886,14.416-17.058,18.409-30.821s5.747-28.2,5.844-49.14c.1-16.961-.1-19.772-2.143-27.526-8.182-30.627-28.247-56.7-53.865-69.881-11.3-5.815-22.111-8.723-40.91-11.049C260.07-841.031,228.414-842,104.515-842H0ZM254.713-775.22c11.591,1.648,22.208,4.458,29.124,7.851,16.461,7.754,24.838,22.583,24.936,43.615,0,24.715-12.663,40.223-38.962,47.783-18.117,5.234-19.968,5.234-126.334,4.749l-54.839-.194v-105.84l79.19.484c52.7.291,81.722.772,86.885,1.551Z" transform="translate(-2974 181.413)"/>
    <path id="Path_6" data-name="Path 6" d="M1563-640.593v200.407h373.953v-68.265H1652.13V-615.725h188.914V-683.99H1652.13v-88.744H1929.2V-841H1563Z" transform="translate(-3020.774 181.651)"/>
  </g>
</svg>
